<svg xmlns="http://www.w3.org/2000/svg" viewBox="0 0 1100 540" width="1100" height="540">
    <defs>
        <style>
            text{font-family:"Courier New","Lucida Console",Monaco,monospace;font-size:14px;}
            @keyframes fadeSlide{from{opacity:0;transform:translateY(5px)}to{opacity:1;transform:translateY(0)}}
            @keyframes blink{0%,100%{opacity:1}50%{opacity:0}}
            @keyframes fadeIn{from{opacity:0}to{opacity:1}}
            @keyframes fadeOut{from{opacity:1}to{opacity:0}}
            @keyframes barFill{from{width:0}to{width:200px}}
            @keyframes glowPulse{0%,100%{opacity:0.4}50%{opacity:0.9}}
            @keyframes logoIn{from{opacity:0;transform:scale(0.6)}to{opacity:1;transform:scale(1)}}
            .r0{animation:fadeSlide 0.4s ease both;animation-delay:5.100s;}
            .r1{animation:fadeSlide 0.4s ease both;animation-delay:5.208s;}
            .r2{animation:fadeSlide 0.4s ease both;animation-delay:5.315s;}
            .r3{animation:fadeSlide 0.4s ease both;animation-delay:5.423s;}
            .r4{animation:fadeSlide 0.4s ease both;animation-delay:5.531s;}
            .r5{animation:fadeSlide 0.4s ease both;animation-delay:5.638s;}
            .r6{animation:fadeSlide 0.4s ease both;animation-delay:5.746s;}
            .r7{animation:fadeSlide 0.4s ease both;animation-delay:5.854s;}
            .r8{animation:fadeSlide 0.4s ease both;animation-delay:5.962s;}
            .r9{animation:fadeSlide 0.4s ease both;animation-delay:6.069s;}
            .r10{animation:fadeSlide 0.4s ease both;animation-delay:6.177s;}
            .r11{animation:fadeSlide 0.4s ease both;animation-delay:6.285s;}
            .r12{animation:fadeSlide 0.4s ease both;animation-delay:6.392s;}
            .r13{animation:fadeSlide 0.4s ease both;animation-delay:6.500s;}
            .r14{animation:fadeSlide 0.4s ease both;animation-delay:6.608s;}
            .r15{animation:fadeSlide 0.4s ease both;animation-delay:6.715s;}
            .r16{animation:fadeSlide 0.4s ease both;animation-delay:6.823s;}
            .r17{animation:fadeSlide 0.4s ease both;animation-delay:6.931s;}
            .r18{animation:fadeSlide 0.4s ease both;animation-delay:7.038s;}
            .r19{animation:fadeSlide 0.4s ease both;animation-delay:7.146s;}
            .r20{animation:fadeSlide 0.4s ease both;animation-delay:7.254s;}
            .r21{animation:fadeSlide 0.4s ease both;animation-delay:7.362s;}
            .r22{animation:fadeSlide 0.4s ease both;animation-delay:7.469s;}
            .r23{animation:fadeSlide 0.4s ease both;animation-delay:7.577s;}
            .r24{animation:fadeSlide 0.4s ease both;animation-delay:7.685s;}
            .r25{animation:fadeSlide 0.4s ease both;animation-delay:7.792s;}
        </style>
        <radialGradient id="grd" cx="50%" cy="48%" r="38%"><stop offset="0%" stop-color="#757F3F" stop-opacity="0.14"/><stop offset="100%" stop-color="#0D0D0D" stop-opacity="0"/></radialGradient>
        <linearGradient id="barg" x1="0" y1="0" x2="1" y2="0"><stop offset="0%" stop-color="#BCCE45"/><stop offset="100%" stop-color="#757F3F"/></linearGradient>
    </defs>

    <rect width="1100" height="540" fill="#0D0D0D" rx="10"/>
    <rect width="1100" height="32" fill="#161B22" rx="10"/>
    <rect y="20" width="1100" height="12" fill="#161B22"/>
    <circle cx="22" cy="16" r="6" fill="#FF5F57"/>
    <circle cx="44" cy="16" r="6" fill="#FFBD2E"/>
    <circle cx="66" cy="16" r="6" fill="#28CA41"/>
    <text x="550" y="20" fill="#58667d" text-anchor="middle" font-size="11.5">azw4d / README.md</text>
    <line x1="458" y1="36" x2="458" y2="530" stroke="#1D2433" stroke-width="1" style="animation:fadeIn 0.6s ease both;animation-delay:5.100s;opacity:0"/>
    
    <g style="animation:fadeOut 0.55s ease forwards;animation-delay:4.650s;">
        <rect width="1100" height="540" fill="#0D0D0D" rx="10"/>
        <rect width="1100" height="540" fill="url(#grd)" style="animation:glowPulse 2.5s ease-in-out infinite"/>
        
        <g style="transform-origin:550px 256px;animation:logoIn 0.7s cubic-bezier(0.16,1,0.3,1) both;animation-delay:0.500s;opacity:0">
            <svg x="484.55" y="201.00" width="130.89" height="110.00" viewBox="-3.19 54.44 520.0 437.0" xmlns="http://www.w3.org/2000/svg">
                <path d="M0 0 C2.09146121 1.82357538 4.1451971 3.68418261 6.1875 5.5625 C7.49654297 6.74779297 7.49654297 6.74779297 8.83203125 7.95703125 C27.38340392 25.5735316 40.11220534 49.32827548 44.1875 74.5625 C44.31769531 75.33335937 44.44789063 76.10421875 44.58203125 76.8984375 C46.85276053 93.18713556 45.95453757 111.49798773 36.24609375 125.328125 C27.61251659 135.64517248 17.4120301 139.71506297 4.36865234 141.37207031 C-4.3453221 142.13286056 -12.80581459 141.26289296 -21.4375 140.0625 C-23.30680176 139.80944092 -23.30680176 139.80944092 -25.21386719 139.55126953 C-40.29737791 137.46873218 -55.31393153 134.91629257 -70.32666016 132.38085938 C-121.29386904 123.74357661 -121.29386904 123.74357661 -168.6875 140.4375 C-176.9828784 146.84973215 -181.94669668 153.3066065 -184.8125 163.5625 C-185.74574064 173.92798534 -184.38880713 183.52845408 -182.04864502 193.58779907 C-181.19990485 197.25357872 -180.41414167 200.93262923 -179.6328125 204.61328125 C-179.39532791 205.73070961 -179.39532791 205.73070961 -179.15304565 206.87071228 C-177.56492359 214.49449476 -176.43900782 222.15479984 -175.4375 229.875 C-175.28249023 231.06432129 -175.12748047 232.25364258 -174.96777344 233.47900391 C-173.21557085 247.5664732 -172.57234902 261.50625147 -172.5625 275.6875 C-172.56182526 276.56656006 -172.56115051 277.44562012 -172.56045532 278.35131836 C-172.59957162 310.61824464 -174.30448314 355.36425781 -195.6484375 381.83984375 C-204.55690581 390.43924275 -216.71184755 391.74933508 -228.5 391.8125 C-229.91442383 391.8434375 -229.91442383 391.8434375 -231.35742188 391.875 C-239.49807396 391.9197596 -247.75351098 390.86385352 -254.3125 385.625 C-254.9415625 385.14160156 -255.570625 384.65820312 -256.21875 384.16015625 C-259.09490328 381.27695358 -259.77013055 378.81671671 -260.4375 374.8125 C-260.23678852 367.89910449 -256.30180252 362.02515792 -253.13085938 356.06640625 C-240.02469933 331.17441043 -231.29065342 306.1443138 -225.8125 278.5625 C-225.63315918 277.69109375 -225.45381836 276.8196875 -225.26904297 275.921875 C-219.51408373 246.84418621 -216.72362791 196.22913144 -232.8125 170.1875 C-241.06036423 159.49132239 -254.80886604 154.41068171 -267.8125 152.5625 C-272.19136207 152.26844655 -276.54978519 152.22862522 -280.9375 152.25 C-282.13020508 152.25491455 -283.32291016 152.2598291 -284.55175781 152.26489258 C-309.67208157 152.59739754 -330.70490283 161.72120825 -351.8125 174.5625 C-376.28235784 189.44930029 -401.04784287 200.14297192 -430.30078125 193.6015625 C-442.54205788 189.97956074 -451.7137791 182.43638973 -458.2109375 171.578125 C-470.49371097 148.45056129 -468.34485284 122.40448504 -461.13305664 98.04077148 C-456.70703861 84.40244174 -449.42358669 72.13833592 -439.8125 61.5625 C-439.27625 60.88574219 -438.74 60.20898438 -438.1875 59.51171875 C-420.42817374 37.35695924 -389.41257484 24.27126006 -361.8125 20.5625 C-361.02875 20.45164063 -360.245 20.34078125 -359.4375 20.2265625 C-324.51441033 16.18858026 -288.59907036 23.36307713 -260.57421875 45.2890625 C-256.17781094 48.90817048 -251.94501424 52.64482595 -247.8125 56.5625 C-246.86632812 57.44421875 -245.92015625 58.3259375 -244.9453125 59.234375 C-234.59987141 69.07936658 -226.21870842 80.37919656 -218.8125 92.5625 C-218.64758057 91.94544189 -218.48266113 91.32838379 -218.31274414 90.69262695 C-207.58485903 51.05915314 -188.44601306 11.40246886 -151.8125 -10.4375 C-105.18710841 -37.09904575 -41.91956514 -35.33026402 0 0 Z" fill="#757F3F" transform="translate(466.8125,91.4375)"/>
                <path d="M0 0 C0.95583984 -0.01772461 1.91167969 -0.03544922 2.89648438 -0.05371094 C8.43308786 -0.04787474 13.5007284 0.1257284 17.6875 4.3125 C18.46000938 8.32428166 18.55062601 11.87834245 16.40625 15.44140625 C13.54349868 18.76610153 10.42562542 21.52817183 7 24.25 C-9.54212099 38.4105705 -15.83020991 59.50140842 -21.89941406 79.5166626 C-31.2592189 110.22808105 -31.2592189 110.22808105 -44.48828125 118.70703125 C-53.12973101 123.17783615 -62.87610016 123.61470976 -72.34375 121.69921875 C-78.6783697 119.48014673 -82.65338057 115.87547599 -86.3125 110.3125 C-86.82039063 109.55066406 -87.32828125 108.78882813 -87.8515625 108.00390625 C-94.52165151 95.46488418 -93.13719974 76.47969076 -89.28125 63.14453125 C-88.9615625 62.20996094 -88.641875 61.27539062 -88.3125 60.3125 C-87.9721875 59.24386719 -87.631875 58.17523438 -87.28125 57.07421875 C-79.7389258 35.39003668 -63.17524524 19.91381916 -43.3125 9.4375 C-36.50598108 6.1981153 -29.63366586 4.05313561 -22.3125 2.3125 C-21.47074219 2.08691406 -20.62898438 1.86132812 -19.76171875 1.62890625 C-13.24146079 0.1210316 -6.6619819 0.07605002 0 0 Z" fill="#BCCE45" transform="translate(117.3125,137.6875)"/>
                <path d="M0 0 C0.83328839 4.53679234 0.05866758 7.43283138 -2.3125 11.25 C-5.32964959 15.45701141 -8.89830375 18.91834312 -12.61621094 22.50219727 C-21.46208164 31.20994406 -27.9790331 41.824024 -34.43505859 52.34570312 C-39.86994425 61.13365898 -45.72555033 70.57518344 -56 74 C-61.02013384 74.52707085 -64.90468051 74.52810047 -69.5 72.3125 C-72.67123006 69.37911219 -73.74819819 66.82702711 -74.3359375 62.5625 C-74.61118222 44.50644635 -65.02540709 30.35774102 -52.87890625 17.80859375 C-44.35079617 9.81251255 -34.1032199 3.65617293 -23 0 C-22.34902344 -0.22429687 -21.69804687 -0.44859375 -21.02734375 -0.6796875 C-14.47912327 -2.64280904 -5.81881925 -3.87921283 0 0 Z" fill="#BCCE45" transform="translate(363,99)"/>
            </svg>
        </g>

        <rect x="450" y="333" width="200" height="3" rx="1.5" fill="#1A1A1A" style="animation:fadeIn 0.3s ease both;animation-delay:2.100s;opacity:0"/>
        <rect x="450" y="333" width="0" height="3" rx="1.5" fill="url(#barg)" style="animation:barFill 2.2s cubic-bezier(0.4,0,0.2,1) forwards,fadeIn 0.3s ease both;animation-delay:2.100s;opacity:0"/>
        <text x="550" y="520" text-anchor="middle" fill="#e1e8ed" font-size="9" letter-spacing="2.8" style="animation:fadeIn 0.6s ease both;animation-delay:2.400s;opacity:0">INITIALISING ENVIRONMENT</text>
    </g>

    <g style="animation:fadeIn 0.6s ease both;animation-delay:5.100s;opacity:0">
        <text class="r0" x="24" y="56" fill="#e1e8ed">.  <tspan fill="#179ff1">$ git</tspan> clone https://github.com/azw4d/azw4d.git</text>
        <text class="r1" x="24" y="72" fill="#e1e8ed">.  <tspan fill="#179ff1">$ cd</tspan> azw4d</text>
        <text class="r2" x="24" y="88" fill="#e1e8ed">.  <tspan fill="#179ff1">$ npm</tspan> install</text>
        <text class="r3" x="24" y="104" fill="#e1e8ed">.  <tspan fill="#179ff1">$ npm</tspan> run build</text>
        <text class="r4" x="24" y="120" fill="#e1e8ed">.  <tspan fill="#179ff1">$ npm</tspan> <tspan fill="#ffc914">start</tspan></text>
        <text class="r5" x="24" y="136" fill="#e1e8ed">.  </text>
        <text class="r6" x="24" y="152" fill="#e1e8ed">.  [init] loading profile metadata...</text>
        <text class="r7" x="24" y="168" fill="#e1e8ed">.  [info] checking environment variables</text>
        <text class="r8" x="24" y="184" fill="#e1e8ed">.  [ok] <tspan fill="#179ff1">NODE_ENV</tspan>=<tspan fill="#ffc914">production</tspan> </text>
        <text class="r9" x="24" y="200" fill="#e1e8ed">.  [ok] <tspan fill="#179ff1">PORT</tspan>=<tspan fill="#ffc914">443</tspan> </text>
        <text class="r10" x="24" y="216" fill="#e1e8ed">.  </text>
        <text class="r11" x="24" y="232" fill="#e1e8ed">.  Welcome to my profile!</text>
        <text class="r12" x="24" y="248" fill="#e1e8ed">. </text>
        <text class="r13" x="24" y="264" fill="#e1e8ed">. <tspan fill="#179ff1">$ tail</tspan> <tspan fill="#ffc914">-f</tspan> logs/server.log</text>
        <text class="r14" x="24" y="280" fill="#e1e8ed">. [INFO] API request GET /azw4d</text>
        <text class="r15" x="24" y="296" fill="#e1e8ed">. [200] 15ms</text>

        <rect x="24" y="300" width="7" height="13" fill="#e1e8ed" style="animation:blink 1.1s step-start infinite;animation-delay:8.100s;opacity:0"/>

        <text class="r0" x="468" y="56"><tspan fill="#ffc914">azw4d</tspan><tspan fill="#e1e8ed">@github</tspan><tspan fill="#e1e8ed">  ─────────────────────────────────────────────────────────</tspan></text>
        <text class="r1" x="468" y="72"><tspan fill="#ffc914">. </tspan><tspan fill="#ffc914">OS</tspan><tspan fill="#e1e8ed">: </tspan><tspan fill="#3e3e42">................................... </tspan><tspan fill="#e1e8ed">Linux  ·  Windows  ·  Android</tspan></text>
        <text class="r2" x="468" y="88"><tspan fill="#ffc914">. </tspan><tspan fill="#ffc914">Uptime</tspan><tspan fill="#e1e8ed">: </tspan><tspan fill="#3e3e42">............................... </tspan><tspan fill="#e1e8ed">5 years, 4 months and 3 days</tspan></text>
        <text class="r3" x="468" y="104"><tspan fill="#ffc914">. </tspan><tspan fill="#ffc914">Status</tspan><tspan fill="#e1e8ed">: </tspan><tspan fill="#3e3e42">............................... </tspan><tspan fill="#e1e8ed">Student</tspan></text>
        
        <text class="r5" x="468" y="120"><tspan fill="#3e3e42">.</tspan></text>

        <text class="r6" x="468" y="136"><tspan fill="#ffc914">. </tspan><tspan fill="#ffc914">Languages.Programming</tspan><tspan fill="#e1e8ed">: </tspan><tspan fill="#3e3e42">................ </tspan><tspan fill="#e1e8ed">Python, JavaScript, C, Bash</tspan></text>
        <text class="r7" x="468" y="152"><tspan fill="#ffc914">. </tspan><tspan fill="#ffc914">Languages.Web</tspan><tspan fill="#e1e8ed">: </tspan><tspan fill="#3e3e42">........................ </tspan><tspan fill="#e1e8ed">HTML, CSS, JSON</tspan></text>
        <text class="r8" x="468" y="168"><tspan fill="#ffc914">. </tspan><tspan fill="#ffc914">Languages.Real</tspan><tspan fill="#e1e8ed">: </tspan><tspan fill="#3e3e42">....................... </tspan><tspan fill="#e1e8ed">English, Arabic</tspan></text>
        
        <text class="r8" x="468" y="184"><tspan fill="#3e3e42">.</tspan></text>

        <text class="r9" x="468" y="200"><tspan fill="#ffc914">. </tspan><tspan fill="#ffc914">Frameworks</tspan><tspan fill="#e1e8ed">: </tspan><tspan fill="#3e3e42">........................... </tspan><tspan fill="#e1e8ed">Node.js, Express.js, Flask</tspan></text>
        <text class="r10" x="468" y="216"><tspan fill="#3e3e42">. </tspan><tspan fill="#ffc914">          </tspan><tspan fill="#e1e8ed">  </tspan><tspan fill="#3e3e42">....................................... </tspan><tspan fill="#e1e8ed">Socket.io, Electron.js, EJS</tspan></text>
        <text class="r11" x="468" y="232"><tspan fill="#ffc914">. </tspan><tspan fill="#ffc914">Database</tspan><tspan fill="#e1e8ed">: </tspan><tspan fill="#3e3e42">............................. </tspan><tspan fill="#e1e8ed">MongoDB, Firebase</tspan></text>
        
        <text class="r12" x="468" y="248"><tspan fill="#3e3e42">.</tspan></text>

        <text class="r13" x="468" y="264"><tspan fill="#ffc914">. </tspan><tspan fill="#ffc914">Cloud</tspan><tspan fill="#e1e8ed">: </tspan><tspan fill="#3e3e42">................................ </tspan><tspan fill="#e1e8ed">GCP  (Google Cloud),  Azure</tspan></text>
        <text class="r14" x="468" y="280"><tspan fill="#ffc914">. </tspan><tspan fill="#ffc914">DevOps</tspan><tspan fill="#e1e8ed">: </tspan><tspan fill="#3e3e42">............................... </tspan><tspan fill="#e1e8ed">Docker</tspan></text>
        <text class="r15" x="468" y="296"><tspan fill="#ffc914">. </tspan><tspan fill="#ffc914">AI / Data</tspan><tspan fill="#e1e8ed">: </tspan><tspan fill="#3e3e42">............................ </tspan><tspan fill="#e1e8ed">LLMs, Ollama, Jupyter</tspan></text>
        
        <text class="r16" x="468" y="312"><tspan fill="#3e3e42">.</tspan></text>

        <text class="r17" x="468" y="328"><tspan fill="#ffc914">─ </tspan><tspan fill="#ffc914">Contact</tspan><tspan fill="#e1e8ed"> ─────────────────────────────────────────────────────────────</tspan></text>
        <text class="r18" x="468" y="344"><tspan fill="#ffc914">. </tspan><tspan fill="#ffc914">Email</tspan><tspan fill="#e1e8ed">: </tspan><tspan fill="#3e3e42">................................ </tspan><tspan fill="#e1e8ed">hello@azwad.org</tspan></text>
        <text class="r19" x="468" y="360"><tspan fill="#ffc914">. </tspan><tspan fill="#ffc914">Website</tspan><tspan fill="#e1e8ed">: </tspan><tspan fill="#3e3e42">.............................. </tspan><tspan fill="#e1e8ed">www.azwad.org</tspan></text>
        <text class="r20" x="468" y="376"><tspan fill="#ffc914">. </tspan><tspan fill="#ffc914">Github</tspan><tspan fill="#e1e8ed">: </tspan><tspan fill="#3e3e42">............................... </tspan><tspan fill="#e1e8ed">azw4d</tspan></text>

        <text class="r21" x="468" y="392"><tspan fill="#3e3e42">.</tspan></text>

        <text class="r22" x="468" y="408"><tspan fill="#ffc914">─ </tspan><tspan fill="#ffc914">GitHub Stats</tspan><tspan fill="#e1e8ed"> ────────────────────────────────────────────────────────</tspan></text>
        <text class="r23" x="468" y="424"><tspan fill="#ffc914">. </tspan><tspan fill="#ffc914">Repos</tspan><tspan fill="#e1e8ed">: </tspan><tspan fill="#3e3e42">................................ </tspan><tspan fill="#e1e8ed">NaN  |  Stars: </tspan><tspan fill="#3e3e42">... </tspan><tspan fill="#e1e8ed">NaN</tspan></text>
        <text class="r24" x="468" y="440"><tspan fill="#ffc914">. </tspan><tspan fill="#ffc914">Commits</tspan><tspan fill="#e1e8ed">: </tspan><tspan fill="#3e3e42">.............................. </tspan><tspan fill="#e1e8ed">NaN  |  Followers: </tspan><tspan fill="#3e3e42"> </tspan><tspan fill="#e1e8ed">NaN</tspan></text>
        <text class="r25" x="468" y="456"><tspan fill="#ffc914">. </tspan><tspan fill="#ffc914">Lines of Code</tspan><tspan fill="#e1e8ed">: </tspan><tspan fill="#3e3e42">........................ </tspan><tspan fill="#e1e8ed">NaN  ( </tspan><tspan fill="#2bc410">NaN++</tspan><tspan fill="#e1e8ed">,  </tspan><tspan fill="#d41212">NaN--</tspan><tspan fill="#e1e8ed"> )</tspan></text>
    </g>

    <rect x="468" y="461" width="7" height="13" fill="#C9A84C" style="animation:blink 1.1s step-start infinite;animation-delay:8.100s;opacity:0"/>
</svg>